<svg xmlns="http://www.w3.org/2000/svg" xmlns:xlink="http://www.w3.org/1999/xlink" width="500" zoomAndPan="magnify" viewBox="0 0 375 374.999991" height="500" preserveAspectRatio="xMidYMid meet" version="1.0"><defs><g/><clipPath id="a9648ce2be"><path d="M 143.1875 65.40625 L 231.6875 65.40625 L 231.6875 181 L 143.1875 181 Z M 143.1875 65.40625 " clip-rule="nonzero"/></clipPath><clipPath id="0fa0cd4f8b"><path d="M 143.1875 105 L 231.6875 105 L 231.6875 220.65625 L 143.1875 220.65625 Z M 143.1875 105 " clip-rule="nonzero"/></clipPath></defs><rect x="-37.5" width="450" fill="#ffffff" y="-37.499999" height="449.999989" fill-opacity="1"/><rect x="-37.5" width="450" fill="#ffffff" y="-37.499999" height="449.999989" fill-opacity="1"/><g clip-path="url(#a9648ce2be)"><path fill="#737373" d="M 209.203125 78.273438 C 210.03125 78.273438 210.761719 77.957031 211.300781 77.414062 C 211.84375 76.875 212.160156 76.144531 212.160156 75.316406 C 212.160156 74.492188 211.84375 73.761719 211.300781 73.21875 C 210.761719 72.679688 210.03125 72.363281 209.203125 72.363281 C 208.378906 72.363281 207.648438 72.679688 207.105469 73.21875 C 206.566406 73.761719 206.25 74.492188 206.25 75.316406 C 206.25 76.144531 206.566406 76.875 207.105469 77.414062 C 207.648438 77.957031 208.378906 78.273438 209.203125 78.273438 Z M 158.824219 171.5625 L 178.148438 171.5625 L 172.9375 180.621094 L 143.1875 180.621094 L 147.097656 173.820312 L 175.226562 125.09375 L 176.179688 123.441406 L 181.203125 114.761719 L 186.414062 105.703125 L 195.378906 90.195312 L 200.941406 80.53125 C 199.988281 79.003906 199.414062 77.226562 199.414062 75.285156 C 199.414062 72.585938 200.496094 70.167969 202.273438 68.390625 C 204.054688 66.609375 206.472656 65.527344 209.171875 65.527344 C 211.875 65.527344 214.289062 66.609375 216.070312 68.390625 C 217.851562 70.167969 218.929688 72.585938 218.929688 75.285156 C 218.929688 77.988281 217.851562 80.402344 216.070312 82.183594 C 214.289062 83.964844 211.875 85.042969 209.171875 85.042969 C 209.046875 85.042969 208.886719 85.042969 208.757812 85.042969 L 196.839844 105.703125 L 191.628906 114.761719 L 184 127.953125 L 184 127.984375 Z M 231.804688 171.5625 L 198.96875 171.5625 L 193.757812 180.621094 L 231.804688 180.621094 Z M 231.804688 171.5625 " fill-opacity="1" fill-rule="evenodd"/></g><g clip-path="url(#0fa0cd4f8b)"><path fill="#ff5757" d="M 165.816406 208.054688 C 164.992188 208.054688 164.261719 208.371094 163.71875 208.910156 C 163.179688 209.453125 162.863281 210.183594 162.863281 211.007812 C 162.863281 211.835938 163.179688 212.566406 163.71875 213.105469 C 164.261719 213.648438 164.992188 213.964844 165.816406 213.964844 C 166.644531 213.964844 167.375 213.648438 167.914062 213.105469 C 168.457031 212.566406 168.773438 211.835938 168.773438 211.007812 C 168.773438 210.183594 168.457031 209.453125 167.914062 208.910156 C 167.375 208.371094 166.613281 208.054688 165.816406 208.054688 Z M 202.050781 105.703125 L 231.804688 105.703125 L 227.894531 112.507812 L 198.808594 162.886719 L 193.789062 171.5625 L 188.542969 180.621094 L 174.019531 205.765625 C 174.972656 207.289062 175.542969 209.070312 175.542969 211.007812 C 175.542969 213.710938 174.464844 216.125 172.683594 217.90625 C 170.902344 219.6875 168.488281 220.765625 165.785156 220.765625 C 163.082031 220.765625 160.667969 219.6875 158.886719 217.90625 C 157.109375 216.125 156.027344 213.710938 156.027344 211.007812 C 156.027344 208.308594 157.109375 205.890625 158.886719 204.113281 C 160.667969 202.332031 163.082031 201.25 165.785156 201.25 C 165.914062 201.25 166.070312 201.25 166.199219 201.25 L 178.117188 180.589844 L 183.332031 171.53125 L 187.6875 164 L 189.371094 161.042969 L 190.929688 158.339844 L 190.929688 158.371094 L 216.101562 114.761719 L 196.777344 114.761719 Z M 165.816406 114.761719 L 176.019531 114.761719 L 181.234375 105.703125 L 143.1875 105.703125 L 143.1875 114.761719 Z M 165.816406 114.761719 " fill-opacity="1" fill-rule="evenodd"/></g><g fill="#000000" fill-opacity="1"><g transform="translate(109.957032, 273.294445)"><g><path d="M 10.484375 -5.9375 L 20.5625 -5.9375 L 20.5625 0 L 2.796875 0 L 2.796875 -31.59375 L 10.484375 -31.59375 Z M 10.484375 -5.9375 "/></g></g></g><g fill="#000000" fill-opacity="1"><g transform="translate(133.67202, 273.294445)"><g><path d="M 10.484375 -31.59375 L 10.484375 0 L 2.796875 0 L 2.796875 -31.59375 Z M 10.484375 -31.59375 "/></g></g></g><g fill="#000000" fill-opacity="1"><g transform="translate(149.197009, 273.294445)"><g><path d="M 25.515625 -31.59375 L 25.515625 -25.421875 L 17.140625 -25.421875 L 17.140625 0 L 9.453125 0 L 9.453125 -25.421875 L 1.078125 -25.421875 L 1.078125 -31.59375 Z M 25.515625 -31.59375 "/></g></g></g><g fill="#000000" fill-opacity="1"><g transform="translate(178.041981, 273.294445)"><g><path d="M 10.484375 -31.59375 L 10.484375 0 L 2.796875 0 L 2.796875 -31.59375 Z M 10.484375 -31.59375 "/></g></g></g><g fill="#000000" fill-opacity="1"><g transform="translate(193.566972, 273.294445)"><g><path d="M 17.734375 0.3125 C 14.765625 0.3125 12.039062 -0.375 9.5625 -1.75 C 7.082031 -3.132812 5.113281 -5.0625 3.65625 -7.53125 C 2.207031 -10.007812 1.484375 -12.796875 1.484375 -15.890625 C 1.484375 -18.972656 2.207031 -21.742188 3.65625 -24.203125 C 5.113281 -26.671875 7.082031 -28.59375 9.5625 -29.96875 C 12.039062 -31.351562 14.765625 -32.046875 17.734375 -32.046875 C 20.703125 -32.046875 23.421875 -31.351562 25.890625 -29.96875 C 28.367188 -28.59375 30.320312 -26.671875 31.75 -24.203125 C 33.175781 -21.742188 33.890625 -18.972656 33.890625 -15.890625 C 33.890625 -12.796875 33.164062 -10.007812 31.71875 -7.53125 C 30.28125 -5.0625 28.332031 -3.132812 25.875 -1.75 C 23.414062 -0.375 20.703125 0.3125 17.734375 0.3125 Z M 17.734375 -6.703125 C 20.253906 -6.703125 22.269531 -7.539062 23.78125 -9.21875 C 25.300781 -10.90625 26.0625 -13.128906 26.0625 -15.890625 C 26.0625 -18.671875 25.300781 -20.894531 23.78125 -22.5625 C 22.269531 -24.226562 20.253906 -25.0625 17.734375 -25.0625 C 15.179688 -25.0625 13.144531 -24.234375 11.625 -22.578125 C 10.113281 -20.929688 9.359375 -18.703125 9.359375 -15.890625 C 9.359375 -13.097656 10.113281 -10.867188 11.625 -9.203125 C 13.144531 -7.535156 15.179688 -6.703125 17.734375 -6.703125 Z M 17.734375 -6.703125 "/></g></g></g><g fill="#000000" fill-opacity="1"><g transform="translate(231.186944, 273.294445)"><g><path d="M 31.046875 0 L 23.359375 0 L 10.484375 -19.484375 L 10.484375 0 L 2.796875 0 L 2.796875 -31.59375 L 10.484375 -31.59375 L 23.359375 -12.015625 L 23.359375 -31.59375 L 31.046875 -31.59375 Z M 31.046875 0 "/></g></g></g></svg>